<svg width="800" height="600" viewBox="0 0 800 600" fill="none" xmlns="http://www.w3.org/2000/svg">
  <defs>
    <linearGradient id="paint0_linear" x1="400" y1="0" x2="400" y2="600" gradientUnits="userSpaceOnUse">
      <stop stop-color="#2563EB" stop-opacity="0.05"/>
      <stop offset="1" stop-color="#2563EB" stop-opacity="0"/>
    </linearGradient>
    <linearGradient id="paint1_linear" x1="400" y1="100" x2="400" y2="500" gradientUnits="userSpaceOnUse">
      <stop stop-color="#2563EB"/>
      <stop offset="1" stop-color="#1E40AF"/>
    </linearGradient>
    <filter id="shadow" x="0" y="0" width="800" height="600" filterUnits="userSpaceOnUse" color-interpolation-filters="sRGB">
      <feFlood flood-opacity="0" result="BackgroundImageFix"/>
      <feColorMatrix in="SourceAlpha" type="matrix" values="0 0 0 0 0 0 0 0 0 0 0 0 0 0 0 0 0 0 127 0"/>
      <feOffset dy="4"/>
      <feGaussianBlur stdDeviation="8"/>
      <feColorMatrix type="matrix" values="0 0 0 0 0 0 0 0 0 0 0 0 0 0 0 0 0 0 0.15 0"/>
      <feBlend mode="normal" in2="BackgroundImageFix" result="effect1_dropShadow"/>
      <feBlend mode="normal" in="SourceGraphic" in2="effect1_dropShadow" result="shape"/>
    </filter>
  </defs>
  
  <!-- Background -->
  <rect width="800" height="600" fill="url(#paint0_linear)"/>
  
  <!-- Service Network Map -->
  <g filter="url(#shadow)" transform="translate(50, 50)">
    <rect x="50" y="50" width="600" height="400" rx="20" fill="white"/>
    
    <!-- India Map Outline (simplified) -->
    <path d="M350 100 L400 80 L450 100 L480 150 L500 200 L520 250 L500 300 L450 350 L400 380 L350 350 L300 300 L280 250 L300 200 L320 150 L350 100Z" 
          fill="#E2E8F0" stroke="#94A3B8" stroke-width="2"/>
    
    <!-- Service Centers -->
    <circle cx="380" cy="150" r="10" fill="#2563EB"/>
    <circle cx="420" cy="200" r="10" fill="#2563EB"/>
    <circle cx="350" cy="250" r="10" fill="#2563EB"/>
    <circle cx="400" cy="300" r="10" fill="#2563EB"/>
    <circle cx="450" cy="250" r="10" fill="#2563EB"/>
    
    <!-- Connection Lines -->
    <line x1="380" y1="150" x2="420" y2="200" stroke="#2563EB" stroke-width="2" stroke-dasharray="5,5"/>
    <line x1="420" y1="200" x2="350" y2="250" stroke="#2563EB" stroke-width="2" stroke-dasharray="5,5"/>
    <line x1="350" y1="250" x2="400" y2="300" stroke="#2563EB" stroke-width="2" stroke-dasharray="5,5"/>
    <line x1="400" y1="300" x2="450" y2="250" stroke="#2563EB" stroke-width="2" stroke-dasharray="5,5"/>
    <line x1="450" y1="250" x2="420" y2="200" stroke="#2563EB" stroke-width="2" stroke-dasharray="5,5"/>
    
    <!-- Legend -->
    <rect x="100" y="350" width="200" height="80" rx="10" fill="#F8FAFC"/>
    <circle cx="120" cy="370" r="8" fill="#2563EB"/>
    <text x="140" y="375" font-family="Arial" font-size="14" fill="#1E293B">Service Centers</text>
    
    <line x1="120" y1="400" x2="150" y2="400" stroke="#2563EB" stroke-width="2" stroke-dasharray="5,5"/>
    <text x="160" y="405" font-family="Arial" font-size="14" fill="#1E293B">Service Network</text>
    
    <!-- Stats -->
    <rect x="500" y="100" width="120" height="80" rx="10" fill="#2563EB" fill-opacity="0.1"/>
    <text x="560" y="130" font-family="Arial" font-size="18" font-weight="bold" fill="#2563EB" text-anchor="middle">500+</text>
    <text x="560" y="155" font-family="Arial" font-size="14" fill="#1E293B" text-anchor="middle">Service Centers</text>
    
    <rect x="500" y="200" width="120" height="80" rx="10" fill="#2563EB" fill-opacity="0.1"/>
    <text x="560" y="230" font-family="Arial" font-size="18" font-weight="bold" fill="#2563EB" text-anchor="middle">19,000+</text>
    <text x="560" y="255" font-family="Arial" font-size="14" fill="#1E293B" text-anchor="middle">PIN Codes</text>
    
    <rect x="500" y="300" width="120" height="80" rx="10" fill="#2563EB" fill-opacity="0.1"/>
    <text x="560" y="330" font-family="Arial" font-size="18" font-weight="bold" fill="#2563EB" text-anchor="middle">100+</text>
    <text x="560" y="355" font-family="Arial" font-size="14" fill="#1E293B" text-anchor="middle">Brands Served</text>
  </g>
  
  <!-- Decorative Elements -->
  <circle cx="700" cy="100" r="30" fill="#2563EB" fill-opacity="0.2"/>
  <circle cx="650" cy="150" r="20" fill="#2563EB" fill-opacity="0.15"/>
  <circle cx="720" cy="180" r="15" fill="#2563EB" fill-opacity="0.1"/>
  
  <circle cx="100" cy="500" r="30" fill="#2563EB" fill-opacity="0.2"/>
  <circle cx="150" cy="450" r="20" fill="#2563EB" fill-opacity="0.15"/>
  <circle cx="80" cy="420" r="15" fill="#2563EB" fill-opacity="0.1"/>
</svg>