<svg width="600" height="400" viewBox="0 0 600 400" fill="none" xmlns="http://www.w3.org/2000/svg">
  <rect width="600" height="400" rx="10" fill="#F0F4FF"/>
  <rect x="50" y="50" width="200" height="300" rx="8" fill="#E0E7FF"/>
  <rect x="350" y="50" width="200" height="300" rx="8" fill="#E0E7FF"/>
  <rect x="80" y="80" width="140" height="100" rx="5" fill="#C7D2FE"/>
  <rect x="80" y="200" width="140" height="120" rx="5" fill="#C7D2FE"/>
  <rect x="380" y="80" width="140" height="100" rx="5" fill="#C7D2FE"/>
  <rect x="380" y="200" width="140" height="120" rx="5" fill="#C7D2FE"/>
  <circle cx="150" cy="130" r="30" fill="#818CF8"/>
  <circle cx="450" cy="130" r="30" fill="#818CF8"/>
  <rect x="110" y="240" width="80" height="10" rx="5" fill="#818CF8"/>
  <rect x="110" y="260" width="80" height="10" rx="5" fill="#818CF8"/>
  <rect x="110" y="280" width="80" height="10" rx="5" fill="#818CF8"/>
  <rect x="410" y="240" width="80" height="10" rx="5" fill="#818CF8"/>
  <rect x="410" y="260" width="80" height="10" rx="5" fill="#818CF8"/>
  <rect x="410" y="280" width="80" height="10" rx="5" fill="#818CF8"/>
  <path d="M300 200 L270 230 L330 230 Z" fill="#818CF8"/>
</svg>