<svg width="800" height="800" viewBox="0 0 800 800" fill="none" xmlns="http://www.w3.org/2000/svg">
  <defs>
    <linearGradient id="map_gradient" x1="400" y1="0" x2="400" y2="800" gradientUnits="userSpaceOnUse">
      <stop stop-color="#2563EB" stop-opacity="0.1"/>
      <stop offset="1" stop-color="#2563EB" stop-opacity="0.3"/>
    </linearGradient>
    <filter id="shadow" x="0" y="0" width="800" height="800" filterUnits="userSpaceOnUse" color-interpolation-filters="sRGB">
      <feFlood flood-opacity="0" result="BackgroundImageFix"/>
      <feColorMatrix in="SourceAlpha" type="matrix" values="0 0 0 0 0 0 0 0 0 0 0 0 0 0 0 0 0 0 127 0"/>
      <feOffset dy="4"/>
      <feGaussianBlur stdDeviation="8"/>
      <feColorMatrix type="matrix" values="0 0 0 0 0 0 0 0 0 0 0 0 0 0 0 0 0 0 0.15 0"/>
      <feBlend mode="normal" in2="BackgroundImageFix" result="effect1_dropShadow"/>
      <feBlend mode="normal" in="SourceGraphic" in2="effect1_dropShadow" result="shape"/>
    </filter>
  </defs>
  
  <!-- Background -->
  <rect width="800" height="800" fill="white"/>
  
  <!-- India Map (Simplified) -->
  <g filter="url(#shadow)">
    <path d="M400 100 L450 120 L500 150 L550 200 L580 250 L600 300 L620 350 L630 400 L620 450 L600 500 L580 550 L550 600 L500 650 L450 680 L400 700 L350 680 L300 650 L250 600 L220 550 L200 500 L180 450 L170 400 L180 350 L200 300 L220 250 L250 200 L300 150 L350 120 L400 100Z" 
          fill="url(#map_gradient)" stroke="#2563EB" stroke-width="2"/>
    
    <!-- State Boundaries (Simplified) -->
    <path d="M400 100 L350 200 L400 300 L450 200 Z" fill="#2563EB" fill-opacity="0.1" stroke="#2563EB" stroke-width="1"/>
    <path d="M350 200 L300 300 L350 400 L400 300 Z" fill="#2563EB" fill-opacity="0.15" stroke="#2563EB" stroke-width="1"/>
    <path d="M400 300 L450 400 L400 500 L350 400 Z" fill="#2563EB" fill-opacity="0.2" stroke="#2563EB" stroke-width="1"/>
    <path d="M450 200 L500 300 L450 400 L400 300 Z" fill="#2563EB" fill-opacity="0.25" stroke="#2563EB" stroke-width="1"/>
    <path d="M300 300 L250 400 L300 500 L350 400 Z" fill="#2563EB" fill-opacity="0.1" stroke="#2563EB" stroke-width="1"/>
    <path d="M500 300 L550 400 L500 500 L450 400 Z" fill="#2563EB" fill-opacity="0.15" stroke="#2563EB" stroke-width="1"/>
    <path d="M350 400 L300 500 L350 600 L400 500 Z" fill="#2563EB" fill-opacity="0.2" stroke="#2563EB" stroke-width="1"/>
    <path d="M450 400 L500 500 L450 600 L400 500 Z" fill="#2563EB" fill-opacity="0.25" stroke="#2563EB" stroke-width="1"/>
    
    <!-- Major Cities/Service Centers -->
    <circle cx="400" cy="200" r="8" fill="#2563EB"/>
    <circle cx="350" cy="300" r="8" fill="#2563EB"/>
    <circle cx="450" cy="300" r="8" fill="#2563EB"/>
    <circle cx="400" cy="400" r="8" fill="#2563EB"/>
    <circle cx="300" cy="400" r="8" fill="#2563EB"/>
    <circle cx="500" cy="400" r="8" fill="#2563EB"/>
    <circle cx="350" cy="500" r="8" fill="#2563EB"/>
    <circle cx="450" cy="500" r="8" fill="#2563EB"/>
    <circle cx="400" cy="600" r="8" fill="#2563EB"/>
    
    <!-- Connection Network -->
    <line x1="400" y1="200" x2="350" y2="300" stroke="#2563EB" stroke-width="1" stroke-opacity="0.5"/>
    <line x1="400" y1="200" x2="450" y2="300" stroke="#2563EB" stroke-width="1" stroke-opacity="0.5"/>
    <line x1="350" y1="300" x2="400" y2="400" stroke="#2563EB" stroke-width="1" stroke-opacity="0.5"/>
    <line x1="450" y1="300" x2="400" y2="400" stroke="#2563EB" stroke-width="1" stroke-opacity="0.5"/>
    <line x1="300" y1="400" x2="350" y2="300" stroke="#2563EB" stroke-width="1" stroke-opacity="0.5"/>
    <line x1="500" y1="400" x2="450" y2="300" stroke="#2563EB" stroke-width="1" stroke-opacity="0.5"/>
    <line x1="300" y1="400" x2="350" y2="500" stroke="#2563EB" stroke-width="1" stroke-opacity="0.5"/>
    <line x1="400" y1="400" x2="350" y2="500" stroke="#2563EB" stroke-width="1" stroke-opacity="0.5"/>
    <line x1="400" y1="400" x2="450" y2="500" stroke="#2563EB" stroke-width="1" stroke-opacity="0.5"/>
    <line x1="500" y1="400" x2="450" y2="500" stroke="#2563EB" stroke-width="1" stroke-opacity="0.5"/>
    <line x1="350" y1="500" x2="400" y2="600" stroke="#2563EB" stroke-width="1" stroke-opacity="0.5"/>
    <line x1="450" y1="500" x2="400" y2="600" stroke="#2563EB" stroke-width="1" stroke-opacity="0.5"/>
    
    <!-- Coverage Zones -->
    <circle cx="400" cy="400" r="100" fill="#2563EB" fill-opacity="0.1" stroke="#2563EB" stroke-width="1" stroke-dasharray="5,5"/>
    <circle cx="300" cy="400" r="80" fill="#2563EB" fill-opacity="0.1" stroke="#2563EB" stroke-width="1" stroke-dasharray="5,5"/>
    <circle cx="500" cy="400" r="80" fill="#2563EB" fill-opacity="0.1" stroke="#2563EB" stroke-width="1" stroke-dasharray="5,5"/>
    <circle cx="400" cy="200" r="70" fill="#2563EB" fill-opacity="0.1" stroke="#2563EB" stroke-width="1" stroke-dasharray="5,5"/>
    <circle cx="400" cy="600" r="70" fill="#2563EB" fill-opacity="0.1" stroke="#2563EB" stroke-width="1" stroke-dasharray="5,5"/>
  </g>
  
  <!-- Legend -->
  <rect x="600" y="650" width="150" height="100" rx="10" fill="white" stroke="#E2E8F0" stroke-width="1"/>
  <circle cx="620" cy="670" r="6" fill="#2563EB"/>
  <text x="640" y="675" font-family="Arial" font-size="12" fill="#1E293B">Service Centers</text>
  
  <circle cx="620" cy="700" r="15" fill="#2563EB" fill-opacity="0.1" stroke="#2563EB" stroke-width="1" stroke-dasharray="5,5"/>
  <text x="640" y="705" font-family="Arial" font-size="12" fill="#1E293B">Coverage Area</text>
  
  <line x1="620" y1="730" x2="640" y2="730" stroke="#2563EB" stroke-width="1" stroke-opacity="0.5"/>
  <text x="650" y="735" font-family="Arial" font-size="12" fill="#1E293B">Service Network</text>
  
  <!-- Title -->
  <text x="400" y="50" font-family="Arial" font-size="24" font-weight="bold" fill="#2563EB" text-anchor="middle">Servsy Service Network Coverage</text>
  <text x="400" y="80" font-family="Arial" font-size="16" fill="#64748B" text-anchor="middle">19,000+ PIN Codes | 500+ Service Centers</text>
</svg>