<svg width="600" height="600" viewBox="0 0 600 600" fill="none" xmlns="http://www.w3.org/2000/svg">
  <rect width="600" height="600" rx="10" fill="#F0F4FF"/>
  <path d="M300 100 C200 150 150 200 150 300 C150 400 200 450 300 500 C400 450 450 400 450 300 C450 200 400 150 300 100 Z" fill="#E0E7FF" stroke="#818CF8" stroke-width="3"/>
  <circle cx="250" cy="200" r="15" fill="#EF4444" opacity="0.7"/>
  <circle cx="350" cy="220" r="15" fill="#EF4444" opacity="0.7"/>
  <circle cx="200" cy="300" r="15" fill="#EF4444" opacity="0.7"/>
  <circle cx="300" cy="350" r="15" fill="#EF4444" opacity="0.7"/>
  <circle cx="400" cy="300" r="15" fill="#EF4444" opacity="0.7"/>
  <circle cx="250" cy="400" r="15" fill="#EF4444" opacity="0.7"/>
  <circle cx="350" cy="420" r="15" fill="#EF4444" opacity="0.7"/>
  <path d="M250 200 L350 220" stroke="#818CF8" stroke-width="2" stroke-dasharray="5 5"/>
  <path d="M350 220 L400 300" stroke="#818CF8" stroke-width="2" stroke-dasharray="5 5"/>
  <path d="M400 300 L300 350" stroke="#818CF8" stroke-width="2" stroke-dasharray="5 5"/>
  <path d="M300 350 L350 420" stroke="#818CF8" stroke-width="2" stroke-dasharray="5 5"/>
  <path d="M300 350 L250 400" stroke="#818CF8" stroke-width="2" stroke-dasharray="5 5"/>
  <path d="M250 400 L200 300" stroke="#818CF8" stroke-width="2" stroke-dasharray="5 5"/>
  <path d="M200 300 L250 200" stroke="#818CF8" stroke-width="2" stroke-dasharray="5 5"/>
  <text x="240" y="195" font-family="Arial" font-size="10" fill="#111827">Delhi</text>
  <text x="340" y="215" font-family="Arial" font-size="10" fill="#111827">Kolkata</text>
  <text x="190" y="295" font-family="Arial" font-size="10" fill="#111827">Mumbai</text>
  <text x="290" y="345" font-family="Arial" font-size="10" fill="#111827">Hyderabad</text>
  <text x="390" y="295" font-family="Arial" font-size="10" fill="#111827">Chennai</text>
  <text x="240" y="395" font-family="Arial" font-size="10" fill="#111827">Bangalore</text>
  <text x="340" y="415" font-family="Arial" font-size="10" fill="#111827">Kochi</text>
</svg>